<?xml version="1.0" encoding="UTF-8"?><svg id="Layer_1" xmlns="http://www.w3.org/2000/svg" width="32" height="32" viewBox="0 0 32 32"><path d="M5.33,24c-.38,0-.69-.13-.95-.38-.26-.26-.38-.57-.38-.95s.13-.69,.38-.95c.26-.26,.57-.38,.95-.38H26.67c.38,0,.69,.13,.95,.38,.26,.26,.38,.57,.38,.95s-.13,.69-.38,.95c-.26,.26-.57,.38-.95,.38H5.33Zm0-6.67c-.38,0-.69-.13-.95-.38-.26-.26-.38-.57-.38-.95s.13-.69,.38-.95c.26-.26,.57-.38,.95-.38H26.67c.38,0,.69,.13,.95,.38,.26,.26,.38,.57,.38,.95s-.13,.69-.38,.95c-.26,.26-.57,.38-.95,.38H5.33Zm0-6.67c-.38,0-.69-.13-.95-.38-.26-.26-.38-.57-.38-.95s.13-.69,.38-.95c.26-.26,.57-.38,.95-.38H26.67c.38,0,.69,.13,.95,.38,.26,.26,.38,.57,.38,.95s-.13,.69-.38,.95c-.26,.26-.57,.38-.95,.38H5.33Z"/></svg>