<?xml version="1.0" encoding="UTF-8"?><svg id="Layer_4" xmlns="http://www.w3.org/2000/svg" width="101" height="101" viewBox="0 0 101 101"><defs><style>.cls-1,.cls-2{fill:#fff;}.cls-3{fill:none;}.cls-3,.cls-2,.cls-4{stroke:#000;stroke-miterlimit:10;}.cls-3,.cls-4{stroke-width:.1px;}</style></defs><rect class="cls-2" x=".5" y=".25" width="100" height="100"/><g><path d="M5.6,13v-.19h.9V5.69h-.9v-.19h2.75v.19h-.9v7.11h1.54c.39,0,.71-.05,.95-.14,.24-.1,.42-.23,.54-.41,.12-.18,.2-.39,.24-.65s.06-.54,.06-.85h.2v2.25H5.6Z"/><path d="M15.37,5.35l2.58,7.45h.78v.19h-2.9v-.19h1.03l-1.97-6.08-2.12,6.08h1.06v.19h-2.2v-.19h.92l2.62-7.45h.21Zm-1.89,5.3v-.19h3.24v.19h-3.24Z"/><path d="M25.96,5.5v.19h-.94v5.01c0,.82-.19,1.44-.56,1.84s-.95,.6-1.74,.6c-.86,0-1.5-.19-1.9-.58-.4-.38-.6-1.01-.6-1.87V5.69h-.9v-.19h2.85v.19h-1v4.91c0,.33,.02,.64,.07,.92s.13,.53,.26,.73c.12,.21,.3,.37,.53,.49,.23,.12,.52,.17,.88,.17,.41,0,.76-.08,1.04-.23s.5-.39,.65-.71c.15-.33,.22-.75,.22-1.27V5.69h-.92v-.19h2.05Z"/><path d="M28.41,9.23v-.11h1.5c.32,0,.59-.07,.82-.2,.22-.13,.39-.32,.51-.58,.12-.25,.18-.56,.18-.92s-.06-.67-.18-.93c-.12-.26-.29-.45-.51-.59-.22-.13-.5-.2-.82-.2h-3.3v-.19h3.3c.5,0,.94,.07,1.32,.21s.67,.35,.87,.63c.21,.28,.31,.64,.31,1.08s-.1,.78-.29,1.05c-.19,.27-.48,.46-.85,.58-.37,.12-.83,.18-1.36,.18h-1.5Zm-1.8,3.77v-.19h3.15v.19h-3.15Zm1.1-.1V5.63h.95v7.26h-.95Zm4.65,.15c-.29,0-.52-.05-.68-.16s-.28-.25-.35-.43c-.07-.18-.12-.38-.14-.6-.02-.22-.03-.45-.03-.69,0-.24-.02-.47-.04-.69s-.07-.42-.15-.6-.21-.32-.38-.43c-.18-.1-.42-.16-.72-.16h-1.45v-.1h1.65c.48,0,.86,.07,1.14,.2,.28,.13,.49,.31,.64,.52,.14,.22,.24,.45,.29,.71,.05,.26,.08,.51,.08,.77,0,.26,.01,.5,.03,.71,.01,.22,.05,.39,.11,.52s.18,.2,.34,.2c.1,0,.2-.01,.28-.03,.08-.02,.16-.05,.22-.08l.07,.19c-.08,.04-.2,.08-.36,.11-.16,.03-.34,.04-.54,.04Z"/><path d="M37.57,5.35l2.58,7.45h.78v.19h-2.9v-.19h1.03l-1.96-6.08-2.12,6.08h1.06v.19h-2.2v-.19h.92l2.62-7.45h.21Zm-1.89,5.3v-.19h3.24v.19h-3.24Z"/></g><g><path d="M48.66,97.93c-.43,0-.8-.07-1.12-.2-.31-.13-.58-.32-.78-.55l-.47,.71h-.17v-2.06h.19c.05,.27,.14,.52,.26,.75s.27,.43,.45,.6,.41,.3,.66,.4c.25,.1,.55,.14,.88,.14,.35,0,.66-.06,.92-.18,.26-.12,.46-.29,.6-.52,.14-.23,.21-.51,.21-.84,0-.29-.07-.54-.21-.74s-.33-.38-.57-.53c-.24-.15-.5-.28-.78-.41s-.57-.26-.85-.39-.54-.3-.78-.48-.43-.4-.57-.66-.22-.57-.22-.94,.09-.69,.28-.97,.44-.5,.75-.65c.31-.15,.66-.23,1.04-.23,.33,0,.63,.05,.91,.16,.27,.1,.52,.26,.72,.48l.46-.64h.16v2.06h-.19c-.07-.42-.19-.76-.38-1.03-.19-.27-.41-.47-.69-.6-.27-.13-.58-.2-.91-.2-.48,0-.84,.11-1.08,.34s-.37,.52-.37,.89c0,.27,.07,.49,.21,.67,.14,.18,.33,.34,.56,.48,.23,.14,.49,.27,.77,.39,.28,.12,.56,.26,.84,.4,.28,.14,.54,.31,.77,.5,.23,.19,.42,.43,.56,.7,.14,.27,.21,.61,.21,1,0,.43-.09,.81-.28,1.13-.19,.32-.45,.57-.79,.75s-.75,.27-1.22,.27Z"/><path d="M51.63,97.78v-.19h.9v-7.11h-.9v-.19h2.85v.19h-.99v7.11h.99v.19h-2.85Zm.97-2.17l3.81-5.14h-1.08v-.19h2.4v.19h-1.04l-3.81,5.14h-.29Zm2.48,2.17v-.19h1.01l-2.1-3.74,.62-.77,2.68,4.51h.9v.19h-3.1Z"/><path d="M62.12,97.88c-.51,0-.96-.1-1.36-.3-.39-.2-.73-.47-1-.83-.28-.35-.48-.76-.62-1.23-.14-.46-.21-.96-.21-1.5s.07-1.03,.22-1.5,.37-.87,.65-1.23c.28-.35,.62-.63,1.01-.83,.39-.2,.83-.3,1.31-.3s.92,.1,1.31,.3c.39,.2,.73,.47,1.01,.83,.28,.35,.5,.76,.65,1.23s.22,.96,.22,1.5-.07,1.03-.21,1.5c-.14,.46-.35,.87-.62,1.23-.27,.35-.61,.63-1,.83-.4,.2-.85,.3-1.35,.3Zm0-.18c.43,0,.79-.1,1.06-.31,.27-.21,.48-.49,.62-.84,.14-.35,.24-.75,.29-1.18s.08-.88,.08-1.33-.03-.9-.09-1.33-.17-.83-.32-1.18c-.15-.35-.36-.63-.62-.84-.27-.21-.6-.31-1.01-.31s-.75,.1-1.01,.31c-.27,.21-.48,.49-.63,.84-.15,.35-.26,.75-.32,1.18s-.09,.88-.09,1.33,.03,.9,.08,1.33c.05,.44,.15,.83,.29,1.18,.14,.35,.35,.63,.62,.84,.27,.21,.62,.31,1.06,.31Z"/><path d="M73.3,90.28v.19h-.87l-2.67,7.45h-.23l-2.59-7.45h-.76v-.19h2.9v.19h-1.04l1.99,6.14,2.18-6.14h-1.22v-.19h2.31Z"/><path d="M76.71,97.93c-.43,0-.8-.07-1.12-.2-.31-.13-.57-.32-.79-.55l-.46,.71h-.17v-2.06h.2c.05,.27,.14,.52,.25,.75s.27,.43,.45,.6c.19,.17,.41,.3,.66,.4,.25,.1,.55,.14,.88,.14,.35,0,.66-.06,.92-.18,.26-.12,.46-.29,.6-.52,.14-.23,.21-.51,.21-.84,0-.29-.07-.54-.21-.74-.14-.2-.33-.38-.57-.53-.24-.15-.5-.28-.78-.41s-.57-.26-.85-.39-.54-.3-.78-.48c-.24-.18-.43-.4-.57-.66s-.22-.57-.22-.94,.09-.69,.28-.97,.44-.5,.75-.65c.31-.15,.66-.23,1.04-.23,.33,0,.63,.05,.91,.16,.28,.1,.52,.26,.72,.48l.46-.64h.17v2.06h-.19c-.07-.42-.19-.76-.38-1.03-.18-.27-.41-.47-.68-.6-.27-.13-.58-.2-.91-.2-.48,0-.84,.11-1.08,.34s-.37,.52-.37,.89c0,.27,.07,.49,.21,.67,.14,.18,.33,.34,.56,.48,.23,.14,.49,.27,.77,.39,.28,.12,.56,.26,.84,.4,.28,.14,.54,.31,.77,.5,.23,.19,.42,.43,.56,.7,.14,.27,.21,.61,.21,1,0,.43-.09,.81-.28,1.13-.19,.32-.45,.57-.8,.75s-.75,.27-1.22,.27Z"/><path d="M81.16,97.78v-.19h1.1v-7.11h-1c-.29,0-.53,.05-.71,.14-.18,.1-.32,.23-.42,.41-.1,.18-.16,.39-.2,.65s-.05,.54-.05,.85h-.2v-2.25h6.12v2.25h-.2c0-.32-.02-.6-.05-.85s-.1-.47-.2-.65c-.1-.18-.24-.31-.42-.41-.18-.09-.42-.14-.71-.14h-1v7.11h1.1v.19h-3.15Z"/><path d="M86.41,97.78v-.19h.9v-7.11h-.9v-.19h5.33v2.05h-.19c0-.36-.05-.67-.15-.95-.1-.28-.27-.5-.5-.66-.23-.16-.54-.24-.93-.24h-1.7v7.11h1.59c.46,0,.82-.08,1.08-.25,.26-.17,.44-.4,.55-.71s.16-.67,.16-1.1h.2v2.25h-5.43Zm3.44-2.79c0-.22-.04-.41-.13-.55-.09-.15-.2-.26-.35-.33s-.32-.11-.51-.11h-.83v-.2h.83c.19,0,.36-.03,.51-.1,.15-.07,.27-.17,.35-.31,.09-.14,.13-.32,.13-.55h.2v2.15h-.2Z"/><path d="M95.4,90.28c.74,0,1.38,.16,1.92,.49,.54,.33,.95,.78,1.24,1.34,.29,.57,.44,1.21,.44,1.92,0,.53-.09,1.03-.26,1.48-.17,.46-.42,.85-.74,1.19-.32,.34-.7,.6-1.14,.79-.44,.19-.93,.28-1.46,.28h-2.8v-.19h.9v-7.11h-.9v-.19h2.8Zm-.95,7.31h.95c.46,0,.85-.1,1.16-.3,.31-.2,.56-.46,.75-.8,.19-.34,.33-.72,.41-1.14,.08-.42,.12-.86,.12-1.32s-.05-.89-.14-1.32c-.09-.43-.24-.81-.44-1.14s-.45-.6-.76-.8c-.31-.2-.68-.3-1.12-.3h-.95v7.11Z"/></g><ellipse cx="50.5" cy="50.25" rx="8.5" ry="8"/><rect class="cls-1" x="48.5" y="40.5" width="4" height="20"/><path d="M49.31,46.06v-.2h.34v-7.18h-.34v-.2h1.05v.2h-.34v7.18h.59c.15,0,.27-.05,.36-.14,.09-.1,.16-.23,.21-.41,.05-.18,.08-.4,.09-.65,.01-.26,.02-.54,.02-.86h.08v2.27h-2.06Z"/><path d="M50.53,62.68c-.16,0-.29-.07-.4-.2-.11-.13-.21-.32-.29-.55l-.17,.71h-.06v-2.06h.07c.02,.27,.05,.52,.09,.75,.04,.23,.1,.43,.16,.6,.07,.17,.15,.3,.24,.4,.09,.1,.2,.14,.32,.14,.13,0,.24-.06,.33-.18,.09-.12,.17-.29,.22-.52,.05-.23,.08-.51,.08-.84,0-.29-.03-.54-.08-.74-.05-.2-.12-.38-.21-.53-.09-.15-.18-.28-.28-.41s-.21-.26-.31-.39c-.1-.14-.2-.3-.28-.48s-.15-.4-.21-.66-.08-.57-.08-.94,.03-.69,.1-.97,.16-.5,.27-.65c.11-.15,.24-.23,.38-.23,.12,0,.23,.05,.33,.16s.19,.26,.26,.48l.17-.64h.06v2.06h-.07c-.02-.42-.07-.76-.14-1.03-.07-.27-.15-.47-.25-.6-.1-.13-.21-.2-.33-.2-.17,0-.3,.11-.39,.34-.09,.23-.13,.52-.13,.89,0,.27,.03,.49,.08,.67,.05,.18,.12,.34,.2,.48s.18,.27,.28,.39,.2,.26,.31,.4c.1,.14,.19,.31,.28,.5,.08,.19,.15,.43,.2,.7s.08,.61,.08,1c0,.43-.03,.81-.1,1.13-.07,.32-.16,.57-.29,.75s-.27,.27-.44,.27Z"/><g><path d="M46.3,42.15c-.27,.04-.48,.06-.66,.06-.17,0-.31-.04-.41-.1-.1-.06-.17-.15-.2-.27-.03-.12-.02-.23,.04-.34,.06-.11,.17-.22,.35-.31,.17-.09,.41-.17,.72-.22,.22-.03,.34-.05,.57-.07-.03-.34-.04-.52-.07-.86-.21,.02-.31,.03-.51,.06v-.05c.62-.09,.95-.11,1.63-.09v.06c-.23,0-.34,0-.55,0,.02,.8,.03,1.21,.05,2.01,.17,0,.26,0,.44,0v.05c-.59-.02-.87,0-1.39,.08Zm.41-1.21c-.23,.02-.35,.03-.57,.07-.12,.02-.23,.05-.31,.1-.09,.05-.16,.11-.21,.17-.05,.07-.09,.13-.1,.2-.02,.07-.02,.14,0,.2,.01,.06,.04,.12,.09,.18,.04,.06,.1,.1,.17,.14,.07,.04,.15,.07,.23,.09s.18,.02,.29,0c.2-.03,.3-.04,.5-.06-.03-.44-.05-.66-.09-1.09Z"/><path d="M42.6,41.35c.22-.15,.43-.25,.63-.3,.2-.05,.38-.06,.54-.02,.16,.03,.3,.1,.41,.19,.11,.1,.19,.21,.24,.36,.05,.14,.06,.29,.04,.44-.02,.15-.07,.3-.14,.44s-.17,.28-.29,.41c-.12,.13-.26,.25-.42,.36-.16,.11-.31,.19-.47,.25-.15,.06-.3,.08-.44,.08-.14,0-.27-.02-.4-.08-.12-.06-.23-.14-.32-.25-.09-.11-.15-.25-.18-.39-.03-.15-.02-.31,.02-.48,.04-.17,.13-.35,.25-.52,.13-.17,.29-.34,.51-.48Zm.02,.04c-.18,.13-.31,.26-.39,.39-.08,.13-.11,.26-.11,.39s.02,.25,.07,.36c.05,.12,.11,.22,.18,.33,.07,.1,.15,.19,.24,.28,.09,.08,.18,.14,.28,.18,.1,.04,.21,.05,.32,.03,.11-.02,.24-.08,.38-.17,.14-.09,.24-.19,.31-.3,.07-.11,.11-.22,.13-.34,.02-.12,.02-.24,0-.37-.02-.13-.06-.25-.11-.36s-.11-.23-.18-.33c-.07-.1-.16-.18-.26-.24-.1-.06-.23-.08-.37-.06-.14,.02-.31,.09-.49,.21Z"/><path d="M41.22,44.16l.02,.02c-.16,.22-.24,.34-.38,.57-.08,.13-.12,.25-.15,.36-.02,.11-.02,.21,0,.3,.03,.09,.08,.16,.16,.21,.08,.05,.15,.08,.23,.07,.08,0,.15-.04,.22-.1,.07-.06,.14-.15,.21-.26,.28-.46,.44-.68,.8-1.09l.03,.04c-.35,.4-.51,.62-.79,1.08-.11,.18-.21,.32-.31,.44-.1,.12-.2,.2-.3,.24-.1,.04-.19,.03-.29-.03-.09-.06-.15-.15-.17-.26-.02-.12,0-.26,.05-.43,.05-.17,.14-.37,.27-.58,.14-.24,.22-.35,.38-.57Zm-.14-1.42l.03,.04c-.42,.48-.61,.74-.95,1.29l-.04-.03c.34-.55,.53-.81,.96-1.29Zm-.34,.45c.53,.57,.8,.85,1.33,1.41-.1,.12-.14,.18-.23,.31-.56-.53-.84-.8-1.39-1.33,.11-.16,.17-.24,.29-.39Zm-1.26,2.02c.06-.14,.12-.24,.18-.3s.12-.09,.17-.1,.11,0,.16,.03c.05,.03,.1,.06,.15,.09,.05,.03,.1,.06,.15,.09,.05,.02,.11,.03,.16,.03,.06,0,.11-.04,.17-.09,.06-.05,.13-.14,.2-.26,.14-.23,.21-.34,.37-.56l.02,.02c-.18,.25-.26,.37-.42,.63-.11,.19-.21,.33-.3,.43-.09,.1-.17,.16-.25,.19-.08,.03-.15,.04-.21,.02-.07-.01-.13-.04-.18-.07-.06-.03-.11-.06-.16-.09-.05-.03-.09-.03-.14-.02-.04,.01-.08,.06-.11,.14-.02,.05-.04,.1-.05,.14-.01,.04-.02,.08-.03,.12h-.05s.02-.1,.05-.18c.03-.08,.06-.17,.1-.26Z"/><path d="M38.95,46.67l.05,.02c-.07,.22-.1,.33-.15,.56,.67,.24,1.01,.36,1.68,.59,.04-.16,.06-.25,.11-.41,.04-.12,.05-.22,.06-.3,0-.08,0-.15-.04-.21-.03-.06-.07-.11-.12-.16-.05-.04-.11-.08-.19-.12l.03-.08c.2,.11,.3,.16,.51,.27-.36,.96-.47,1.47-.58,2.51l-.55-.07v-.09c.09,.01,.16,.01,.22,0,.06,0,.12-.03,.17-.06,.05-.04,.09-.09,.12-.16,.03-.07,.06-.17,.08-.29,.03-.17,.04-.25,.08-.42-.68-.2-1.02-.3-1.7-.5-.05,.23-.07,.34-.11,.57h-.05c.11-.67,.18-1,.37-1.64Z"/><path d="M40.36,51.81l-.5,.11v-.09c.08-.02,.15-.06,.21-.12,.06-.06,.11-.14,.14-.25,.03-.11,.04-.24,.03-.41-.02-.27-.02-.41-.02-.68-.7,0-1.05,.01-1.76,.02,0,.21,0,.32,.01,.53h-.05c-.02-.61-.02-.91,.03-1.52h.05c-.01,.2-.02,.29-.03,.48,.7,.03,1.05,.04,1.76,.07,0-.15,.01-.23,.02-.39h.05c-.07,.89-.05,1.35,.07,2.23Zm-1.26-.58c.06,0,.1-.03,.13-.08,.03-.05,.05-.11,.07-.2,.01-.09,.02-.2,.01-.34,0-.13,0-.19,0-.32h.05c0,.13,0,.19,0,.31,0,.14,.01,.25,.03,.34,.02,.08,.05,.14,.08,.18,.03,.04,.08,.05,.13,.05v.09l-.5,.06v-.1Z"/><path d="M39,54.38c-.08-.25-.13-.49-.13-.71,0-.22,.02-.41,.07-.58,.05-.17,.13-.3,.23-.4,.1-.1,.21-.17,.34-.21,.13-.04,.26-.03,.38,0,.12,.03,.24,.1,.35,.19s.21,.21,.3,.35c.09,.14,.16,.31,.23,.5,.06,.19,.1,.37,.12,.55,.02,.18,.01,.34-.02,.5s-.07,.3-.14,.43c-.07,.13-.16,.24-.27,.32-.11,.08-.24,.13-.36,.14-.13,0-.26-.02-.4-.1-.13-.07-.26-.19-.39-.36-.12-.16-.23-.37-.31-.63Zm.04-.02c.07,.21,.16,.37,.26,.48,.1,.1,.2,.16,.31,.18,.11,.02,.21,0,.32-.03s.21-.09,.31-.15c.1-.06,.19-.14,.28-.22,.09-.09,.15-.18,.21-.29,.05-.11,.08-.23,.09-.36,0-.13-.02-.27-.07-.44-.05-.16-.12-.29-.2-.38s-.17-.15-.27-.18c-.1-.03-.2-.05-.31-.04-.11,0-.22,.03-.33,.07-.11,.04-.21,.09-.31,.15-.1,.06-.18,.14-.25,.25-.07,.1-.11,.23-.12,.39-.01,.16,.02,.34,.09,.56Z"/><path d="M39.87,56.28l.04-.03c.09,.16,.14,.24,.24,.39,.57-.5,.86-.75,1.43-1.25-.08-.12-.12-.19-.19-.32l.04-.03c.22,.39,.35,.58,.62,.93l-.04,.04c-.09-.11-.13-.17-.22-.29-.55,.53-.82,.79-1.37,1.32,.18,.26,.28,.38,.48,.62,.13,.15,.25,.26,.34,.32,.1,.07,.19,.1,.26,.1,.07,0,.14-.02,.19-.06,.06-.04,.11-.1,.16-.17,.03,.03,.04,.04,.07,.07l-.36,.5c-.8-.74-1.14-1.19-1.69-2.15Z"/><path d="M41.81,58.65l.03-.04c.17,.14,.26,.21,.44,.35,.4-.68,.61-1.02,1.01-1.7-.15-.11-.22-.16-.35-.28l.03-.04c.4,.34,.62,.49,1.09,.75l-.02,.05c-.18-.1-.26-.15-.43-.25-.37,.7-.56,1.05-.93,1.75,.21,.13,.31,.2,.53,.32l-.02,.05c-.6-.32-.87-.52-1.38-.95Z"/><path d="M45.23,60.4c-.28-.07-.52-.16-.71-.29-.19-.12-.33-.26-.43-.41-.1-.15-.16-.3-.17-.45-.02-.15,0-.3,.06-.44,.06-.14,.14-.25,.25-.35,.11-.09,.24-.16,.39-.21s.31-.07,.49-.07c.18,0,.37,.03,.58,.08,.21,.05,.4,.11,.58,.2,.17,.08,.33,.18,.46,.29,.13,.11,.24,.23,.31,.37,.07,.13,.11,.28,.11,.43,0,.15-.05,.29-.14,.42-.09,.13-.22,.24-.39,.32-.17,.09-.38,.14-.61,.17-.24,.02-.5,0-.78-.06Zm.01-.05c.24,.06,.44,.06,.61,.03,.16-.03,.29-.1,.39-.18,.09-.09,.16-.19,.2-.31,.04-.12,.07-.24,.08-.37,.01-.13,0-.25-.01-.38-.02-.13-.06-.24-.12-.35-.06-.11-.15-.2-.26-.28-.11-.08-.26-.14-.44-.18-.18-.04-.33-.05-.46-.03-.13,.02-.24,.07-.33,.14-.09,.07-.17,.16-.24,.27-.07,.11-.12,.22-.16,.34-.04,.12-.07,.24-.08,.37-.01,.13,0,.25,.04,.37,.04,.12,.12,.23,.25,.33,.12,.1,.31,.18,.55,.24Z"/></g><g><path d="M57.45,81.51c-3.13-2.31-4.51-3.65-6.73-6.49-.69,.04-1.05,.05-1.77,.05v-.19c6.42,0,9.09-.91,13.32-3.64l.11,.16c-1.39,.89-2.14,1.29-3.76,1.93,2.14,1.63,3.32,2.35,5.86,3.56,.22-2.79,.14-4.17-.32-6.77-.45,.36-.68,.54-1.17,.87l-.12-.16c1.02-.71,1.5-1.1,2.39-1.93l.14,.15c-.38,.35-.57,.53-.97,.86,.65,3.38,.73,5.2,.22,8.89-.29,.15-.43,.23-.73,.38-3.39-1.66-4.95-2.71-7.6-5.07-1.06,.3-1.61,.42-2.75,.61,1.86,2.01,2.93,2.95,5.28,4.62,.43-1.22,.59-1.83,.85-3.05,.13,.09,.19,.13,.33,.22-.4,1.89-.69,2.84-1.5,4.73-.43,.12-.65,.18-1.08,.28Zm3.57-6.28c-.14,0-.21,0-.35,0,.16-1.25,.2-1.87,.21-3.1,.13-.05,.19-.08,.32-.14,.01,1.28-.02,1.92-.18,3.23Z"/><path d="M71.09,73.89l-.14-.14c.51-.51,.75-.77,1.22-1.3-2.14-1.95-3.21-2.92-5.35-4.87-.36,.41-.55,.61-.94,1l-.14-.14c2.42-2.41,3.36-3.87,4.69-6.95,.75,.35,1.12,.53,1.87,.88-.05,.12-.08,.17-.13,.29-.35-.1-.69-.11-1.04-.04-.35,.07-.68,.25-1,.53-.33,.28-.63,.67-.93,1.17-.4,.67-.62,1-1.08,1.64,2.3,1.75,3.44,2.63,5.74,4.38,.55-.76,.81-1.15,1.3-1.95,.47-.77,.74-1.46,.86-2.04,.11-.59,.08-1.08-.08-1.48-.16-.4-.42-.72-.78-.96,.06-.13,.09-.2,.14-.33l2.06,.96c-1.77,4.15-3.02,6.11-6.26,9.35Zm2.29-7.43c-.23-.06-.46-.05-.7,.03-.24,.08-.47,.21-.7,.4-.23,.19-.43,.42-.62,.69-.26,.37-.39,.56-.66,.92l-.16-.12c.27-.36,.4-.54,.65-.91,.19-.27,.32-.55,.4-.83,.08-.28,.1-.55,.06-.8-.04-.25-.14-.46-.3-.63,.06-.11,.1-.17,.16-.28l2.04,1.23c-.07,.12-.1,.18-.17,.31Z"/><path d="M75.34,58.45l-.13-.03c.17-.69,.24-1.04,.37-1.74,.07-.41,.08-.81,.03-1.18-.05-.37-.18-.67-.39-.92-.21-.24-.51-.38-.9-.42-.39-.04-.73,.02-1.01,.19-.28,.17-.5,.39-.67,.69-.17,.29-.29,.62-.35,.98-.33,1.85-.58,2.77-1.25,4.52l-.18-.08c.69-1.82,.94-2.77,1.27-4.69,.21-1.2,.43-2.14,.77-2.85,.33-.71,.81-1.08,1.46-1.07,.63,.01,1.1,.4,1.35,1.18,.25,.79,.31,1.95,.05,3.42-.14,.8-.22,1.2-.41,1.98Zm2.49,4.92l-.18-.08c.89-2.35,1.22-3.58,1.66-6.07,.09-.54,.09-1.04,0-1.48-.1-.45-.28-.81-.53-1.09-.26-.28-.59-.43-.98-.47-.39-.04-.72,.05-.99,.25-.26,.2-.47,.49-.63,.86-.16,.37-.28,.78-.36,1.26-.13,.78-.21,1.16-.4,1.93l-.12-.03c.22-.92,.32-1.39,.47-2.33,.14-.86,.28-1.64,.46-2.35,.18-.71,.39-1.28,.67-1.71,.28-.43,.64-.66,1.1-.65,.73,0,1.26,.46,1.53,1.42,.27,.96,.33,2.31,.07,3.98-.43,2.7-.78,4.03-1.75,6.58Zm.5-1.71c-2.78-.98-4.17-1.47-6.95-2.45,.25-.78,.36-1.18,.54-1.98,2.85,.73,4.27,1.1,7.12,1.83-.24,1.05-.38,1.57-.71,2.59Z"/><path d="M79.41,44.17c.16,.76,.21,1.44,.17,2.03-.04,.59-.15,1.1-.31,1.52,.31,.51,.47,.77,.76,1.31,0,.14,.01,.21,.02,.35-.9,.06-1.35,.08-2.25,.14,0-.14-.01-.22-.02-.36,.26-.17,.51-.39,.74-.65,.23-.27,.42-.6,.58-.99,.15-.39,.25-.85,.29-1.38,.04-.53,0-1.12-.14-1.78-.13-.63-.32-1.16-.55-1.59-.23-.42-.49-.72-.76-.89-.27-.17-.55-.21-.83-.11-.27,.09-.45,.29-.56,.61-.11,.31-.17,.7-.19,1.16-.03,.46-.04,.95-.06,1.48-.01,.52-.05,1.05-.11,1.57-.06,.52-.16,1-.31,1.43-.14,.43-.35,.78-.61,1.05-.26,.27-.59,.41-.99,.44-.4,.03-.75-.11-1.07-.4-.32-.29-.58-.67-.8-1.14-.22-.47-.38-.99-.49-1.56-.09-.46-.13-.88-.13-1.29,0-.41,.05-.79,.15-1.14-.34-.34-.51-.5-.87-.81-.03-.09-.05-.14-.08-.23,.82-.31,1.24-.47,2.06-.78,.04,.12,.06,.18,.1,.3-.34,.32-.6,.68-.79,1.07-.19,.39-.31,.81-.35,1.26s-.01,.93,.09,1.46c.12,.62,.3,1.08,.55,1.39,.25,.31,.54,.45,.88,.4,.25-.03,.45-.17,.59-.43,.14-.26,.25-.59,.32-1,.07-.41,.11-.86,.13-1.35,.02-.49,.04-.99,.06-1.5,.02-.51,.06-.99,.12-1.44,.06-.45,.18-.85,.37-1.2,.18-.34,.46-.6,.84-.75,.42-.17,.86-.14,1.31,.12,.45,.26,.87,.7,1.25,1.34,.38,.64,.68,1.42,.87,2.34Z"/><path d="M77.49,38.43l-.18,.08c-.33-.8-.51-1.19-.89-1.97-2.53,1.36-3.8,2.04-6.33,3.4,.3,.6,.43,.9,.69,1.51l-.18,.08c-.84-2.03-1.37-3-2.66-4.78l.16-.12c.43,.59,.63,.89,1.01,1.51,2.41-1.58,3.62-2.37,6.03-3.94-.49-.8-.75-1.2-1.31-1.96l.16-.12c1.71,2.34,2.41,3.63,3.51,6.3Z"/><path d="M71.52,29.19l-.14,.14c-.6-.63-.92-.94-1.58-1.52-1.92,2.17-2.88,3.25-4.8,5.42,.34,.3,.5,.46,.82,.77,.3,.3,.58,.52,.86,.66,.28,.14,.55,.22,.82,.24,.27,.02,.54-.02,.81-.11,.27-.09,.54-.23,.82-.4,.08,.1,.12,.16,.21,.26-.74,.61-1.11,.91-1.85,1.51-2.38-3.04-3.92-4.36-7.7-6.13,.43-.85,.65-1.27,1.08-2.12,.13,.06,.19,.09,.32,.15-.11,.31-.17,.6-.19,.89-.02,.29,0,.56,.1,.83,.09,.27,.24,.52,.45,.76,.21,.24,.5,.48,.87,.72,.39,.25,.58,.38,.96,.65,1.72-2.33,2.59-3.49,4.31-5.81-.73-.53-1.1-.78-1.88-1.25l.11-.17c2.54,1.54,3.67,2.47,5.63,4.52Z"/><path d="M62.24,22.81l-.08,.18c-.72-.3-1.08-.45-1.84-.71-1.05,2.68-1.57,4.01-2.62,6.69,.58,.2,.86,.31,1.41,.54l-.08,.18c-3.41-1.45-5.39-1.9-9.88-1.93,0-.82,.01-1.23,.02-2.05,.17,0,.25,0,.42,0,.07,.36,.25,.68,.53,.97,.28,.29,.67,.53,1.17,.73s1.1,.34,1.82,.44c.96,.14,1.42,.23,2.32,.44,.78-2.76,1.16-4.13,1.94-6.89-1.07-.26-1.62-.37-2.76-.54-1.09-.17-2.02-.17-2.76-.06-.74,.11-1.31,.33-1.7,.62-.39,.29-.63,.66-.72,1.08-.19,0-.29,0-.48,0v-2.25c6.05,0,8.71,.6,13.29,2.54Zm-8.89,.41c.05,.23,.18,.44,.39,.64,.21,.2,.48,.37,.8,.51,.32,.15,.67,.26,1.05,.34,.53,.11,.78,.17,1.29,.3l-.06,.19c-.51-.13-.76-.19-1.28-.3-.38-.08-.75-.11-1.1-.08-.35,.02-.65,.1-.91,.22-.26,.12-.44,.29-.55,.5-.16-.02-.24-.03-.4-.05l.33-2.33c.17,.02,.26,.03,.44,.05Z"/></g><line class="cls-3" x1="48.5" y1="14.5" x2="27.5" y2="14.5"/><line class="cls-3" x1="48.5" y1="14.5" x2="48.5" y2="88.5"/><circle class="cls-4" cx="27.5" cy="14.5" r=".5"/></svg>