<svg id="Layer_1" data-name="Layer 1" xmlns="http://www.w3.org/2000/svg" width="346" height="319" viewBox="0 0 346 319"><defs><style>.cls-1{fill:#fff;}.cls-2{fill:#c7b299;}</style></defs><rect class="cls-1" x="0.5" y="0.5" width="345" height="318"/><path d="M345,1V318H1V1H345m1-1H0V319H346V0Z"/><path d="M70,122.81l71.3-72.24,1.25,1.23A39.17,39.17,0,0,0,138.7,59a14.65,14.65,0,0,0-1.16,7.41,9.25,9.25,0,0,0,1.24,3.12,33.8,33.8,0,0,0,2.7,3.88c1.1,1.38,2.27,2.8,3.54,4.27s2.55,2.85,3.88,4.17c1.17,1.15,2.73,2.72,4.69,4.73s4.1,4.2,6.43,6.58,4.75,4.79,7.24,7.26l7.24,7.14,24.19,23.88,4.37,4.31q2.24,2.21,4.34,3.95a36.51,36.51,0,0,0,3.93,2.88,8.51,8.51,0,0,0,3.37,1.33,14.14,14.14,0,0,0,7.41-1,29.69,29.69,0,0,0,7-4.09l1.25,1.23-35.43,35.89-1.25-1.23q1.2-1.71,2.7-4.23a18.23,18.23,0,0,0,2.15-5.42,13.77,13.77,0,0,0-.12-6.24,15.18,15.18,0,0,0-4-6.76q-4.26-4.42-7.82-8t-7-7.13q-3.43-3.51-7.17-7.2L164,121.39l-7.73-7.63-6.61-6.53q-3.24-3.2-6.73-6.53t-7.73-7.51q-4.1-3.82-7.88-7.23t-6.53-4.11a6.47,6.47,0,0,0-3,.57,23.2,23.2,0,0,0-4.28,2.22q-2.32,1.47-4.86,3.42a46.31,46.31,0,0,0-4.76,4.19c-.59.6-1.51,1.58-2.77,2.93s-2.59,2.88-4,4.58-2.84,3.5-4.22,5.39a38.23,38.23,0,0,0-3.33,5.38,33.48,33.48,0,0,0-3.77,11,34.36,34.36,0,0,0,.12,10.23,45.21,45.21,0,0,0,2.81,9.88q2,4.84,4.39,9.89l-1.48.76Z"/><path d="M20.51,200.67a33.48,33.48,0,0,1-2.11-14.08,35,35,0,0,1,4.17-14.2,57.52,57.52,0,0,1,10-13.42,71.86,71.86,0,0,1,10.08-8.71,47.45,47.45,0,0,1,8.25-4.74,31.63,31.63,0,0,1,5.77-2,6.67,6.67,0,0,0,2.48-.77c.22-.22.2-1.2,0-2.94s-.55-3.35-.87-4.86l1-1,25.15,24.16-1.11,1.13a59,59,0,0,0-9.1-3.88,77,77,0,0,0-9.38-2.47A46.43,46.43,0,0,0,56,152a27.53,27.53,0,0,0-7.19.8,41.93,41.93,0,0,0-7.24,2.84,25.32,25.32,0,0,0-7.12,5q-8.22,8.32-8.28,18.49t8.55,18.66a24,24,0,0,0,7.11,5,20.63,20.63,0,0,0,7.27,1.73,23.85,23.85,0,0,0,7.36-.84A61.21,61.21,0,0,0,64,201q3.8-1.6,6.54-2.88t5.16-2.36q2.4-1.06,4.92-2.24t6.2-2.66a32.85,32.85,0,0,1,9-2.24,33.86,33.86,0,0,1,9.78.32,37.24,37.24,0,0,1,9.7,3.14,31.76,31.76,0,0,1,8.77,6.21A39,39,0,0,1,133.43,212a33,33,0,0,1,2.22,14,34.16,34.16,0,0,1-3.73,13.38,47.38,47.38,0,0,1-8.6,11.83,48.37,48.37,0,0,1-9.49,7.74,44.88,44.88,0,0,1-7.89,3.88,28.1,28.1,0,0,1-5.5,1.46,10.31,10.31,0,0,0-2.21.37c-.22.22-.19,1.18.11,2.88s.64,3.34,1,4.92l-1.22,1.24L75.09,250.89l1.22-1.24a74.1,74.1,0,0,0,11.62,4.57,51.31,51.31,0,0,0,12.12,2.19,33.77,33.77,0,0,0,11.5-1.3,22.79,22.79,0,0,0,9.89-6,27.13,27.13,0,0,0,5.37-7.69,21,21,0,0,0,2-8.73,21.63,21.63,0,0,0-2-9.07,28.83,28.83,0,0,0-6.27-8.75q-6.62-6.53-14.15-6.87a35.52,35.52,0,0,0-15.55,3q-3.21,1.26-5.9,2.48c-1.79.82-3.55,1.64-5.26,2.46s-3.46,1.64-5.25,2.46-3.69,1.65-5.67,2.5A37,37,0,0,1,48,223.83q-10.08-1.64-18.94-10.38A35.39,35.39,0,0,1,20.51,200.67Z"/><path class="cls-2" d="M260.71,181.13,186.16,250,185,248.73a38.63,38.63,0,0,0,4.21-7,14.5,14.5,0,0,0,1.49-7.35,9.2,9.2,0,0,0-1.09-3.16,32.34,32.34,0,0,0-2.51-4c-1-1.43-2.15-2.91-3.35-4.43s-2.42-3-3.69-4.35c-1.11-1.2-2.59-2.85-4.46-4.94s-3.91-4.38-6.13-6.87-4.52-5-6.9-7.58l-6.89-7.46-23.08-25c-1.43-1.54-2.81-3-4.16-4.51s-2.81-2.92-4.16-4.15a35.92,35.92,0,0,0-3.79-3,8.4,8.4,0,0,0-3.31-1.48,14,14,0,0,0-7.44.68,29.5,29.5,0,0,0-7.18,3.76l-1.19-1.28,37-34.23,1.19,1.28c-.85,1.11-1.81,2.47-2.88,4.1a18.56,18.56,0,0,0-2.41,5.32,14,14,0,0,0-.16,6.24,15.17,15.17,0,0,0,3.73,6.94q4,4.61,7.43,8.39L152,162.1q3.27,3.66,6.84,7.52l8,8.62,7.37,8,6.3,6.82c2.07,2.23,4.2,4.51,6.43,6.83s4.67,4.94,7.37,7.86q3.92,4,7.54,7.58c2.42,2.39,4.53,3.85,6.34,4.41a6.36,6.36,0,0,0,3-.43,23,23,0,0,0,4.38-2c1.6-.91,3.26-2,5-3.2a44,44,0,0,0,4.94-4c.62-.57,1.59-1.5,2.91-2.8s2.72-2.76,4.23-4.39,3-3.36,4.46-5.19a39.28,39.28,0,0,0,3.57-5.21,33.75,33.75,0,0,0,4.28-10.87,34.46,34.46,0,0,0,.34-10.22,44.69,44.69,0,0,0-2.35-10q-1.75-4.93-3.93-10.09l1.51-.68Z"/><path class="cls-2" d="M313.75,105.63a33.59,33.59,0,0,1,1.46,14.16,35,35,0,0,1-4.82,14,57.8,57.8,0,0,1-10.65,12.94A72.78,72.78,0,0,1,289.28,155a49,49,0,0,1-8.46,4.36A32.12,32.12,0,0,1,275,161a6.75,6.75,0,0,0-2.52.66c-.23.21-.26,1.19-.08,2.94s.39,3.38.64,4.89l-1,1L248,145.2l1.16-1.08a57.64,57.64,0,0,0,8.92,4.29,76.94,76.94,0,0,0,9.25,2.91,45.85,45.85,0,0,0,8.76,1.32,27.3,27.3,0,0,0,7.21-.46,42.29,42.29,0,0,0,7.37-2.51A25.36,25.36,0,0,0,298,145q8.6-7.93,9.12-18.09t-7.68-19a23.73,23.73,0,0,0-6.88-5.35,20.53,20.53,0,0,0-7.18-2.06,24.09,24.09,0,0,0-7.39.5,59.4,59.4,0,0,0-7.61,2.26q-3.85,1.41-6.66,2.57c-1.87.78-3.62,1.48-5.26,2.12s-3.31,1.31-5,2-3.82,1.5-6.31,2.37a33.73,33.73,0,0,1-9.08,1.83,34.62,34.62,0,0,1-9.75-.77,38.1,38.1,0,0,1-9.55-3.58,31.9,31.9,0,0,1-8.48-6.61,39.06,39.06,0,0,1-8.77-14.09,32.85,32.85,0,0,1-1.57-14,34.14,34.14,0,0,1,4.33-13.19,47.21,47.21,0,0,1,9.14-11.43,49.08,49.08,0,0,1,9.83-7.3,46.18,46.18,0,0,1,8.06-3.51,28.17,28.17,0,0,1,5.56-1.2,11.29,11.29,0,0,0,2.23-.27c.23-.21.24-1.17,0-2.89s-.5-3.36-.83-5l1.28-1.18,22,23.81-1.27,1.18A75,75,0,0,0,248.86,49a52.19,52.19,0,0,0-12-2.74,33.86,33.86,0,0,0-11.56.78,22.81,22.81,0,0,0-10.14,5.56,26.8,26.8,0,0,0-5.72,7.43,21,21,0,0,0-2.37,8.63,21.79,21.79,0,0,0,1.58,9.16,28.81,28.81,0,0,0,5.86,9q6.3,6.82,13.82,7.51A35.46,35.46,0,0,0,244,92.06c2.17-.74,4.18-1.47,6-2.21s3.62-1.47,5.37-2.21,3.53-1.48,5.36-2.21,3.75-1.48,5.78-2.24a36.88,36.88,0,0,1,20.84-2q10,2.1,18.44,11.24A35.38,35.38,0,0,1,313.75,105.63Z"/></svg>